<svg xmlns="http://www.w3.org/2000/svg" width="1024" height="1024" viewBox="0 0 1024 1024">
<g>
<path d="M 436.07 587.13 C436.62,588.16 436.94,588.99 436.79,588.98 C436.34,588.96 408.58,574.47 374.30,556.36 L 343.10 539.88 L 342.36 535.19 C341.95,532.61 341.59,483.92 341.56,427.00 C341.56,421.39 341.55,416.07 341.55,411.03 C341.49,328.83 341.49,320.59 345.11,318.43 C345.74,318.06 346.47,317.86 347.33,317.50 C349.07,316.78 353.36,314.56 356.85,312.59 C360.34,310.62 363.64,309.00 364.19,309.00 C364.74,309.00 366.60,307.99 368.33,306.75 C371.73,304.31 380.98,299.38 399.00,290.41 C418.49,280.71 428.41,275.48 432.00,273.05 C433.38,272.11 436.08,270.73 438.00,269.97 C439.92,269.22 443.75,267.26 446.50,265.63 C451.00,262.97 466.20,254.98 481.00,247.51 C484.02,245.99 487.62,244.11 489.00,243.34 C511.47,230.77 516.92,230.16 525.17,239.27 C526.08,240.28 527.77,241.18 528.92,241.27 C530.06,241.35 531.00,241.78 531.00,242.21 C531.00,242.65 531.63,243.00 532.39,243.00 C534.10,243.00 552.85,252.67 554.39,254.34 C556.09,256.19 556.17,258.00 554.59,258.60 C553.81,258.90 544.20,254.39 533.24,248.58 C522.27,242.76 512.73,238.00 512.03,238.00 C511.33,238.00 503.72,241.76 495.13,246.36 C486.53,250.95 473.88,257.65 467.00,261.24 C460.12,264.83 441.23,274.73 425.00,283.23 C408.77,291.74 386.05,303.57 374.50,309.51 C362.95,315.46 353.28,320.51 353.01,320.74 C352.74,320.96 353.35,321.62 354.37,322.19 C355.39,322.76 357.06,324.06 358.08,325.08 C359.10,326.10 363.66,328.62 368.22,330.67 C372.77,332.73 378.18,335.44 380.23,336.70 C382.28,337.97 384.23,339.00 384.55,339.00 C384.88,339.00 391.53,342.44 399.32,346.65 C407.12,350.86 417.33,356.32 422.00,358.80 C426.67,361.27 432.75,364.51 435.50,365.99 C442.56,369.81 447.30,372.17 456.69,376.53 C461.19,378.63 466.56,381.84 468.62,383.67 C470.68,385.50 473.15,387.00 474.12,387.00 C475.09,387.00 476.16,387.45 476.50,388.00 C476.84,388.55 477.99,389.00 479.06,389.00 C480.13,389.00 481.90,389.90 483.00,391.00 C484.10,392.10 485.48,393.00 486.06,393.00 C486.64,393.00 486.90,393.36 486.63,393.79 C486.36,394.23 487.08,394.66 488.23,394.74 C489.38,394.83 490.59,395.28 490.91,395.75 C491.23,396.22 493.17,397.38 495.21,398.33 C499.38,400.27 500.08,401.09 500.45,404.53 C500.70,406.80 499.95,406.54 487.11,399.79 C479.62,395.86 471.92,391.70 470.00,390.55 C468.08,389.40 465.38,387.99 464.00,387.41 C460.68,386.03 453.81,382.51 434.00,372.04 C381.30,344.18 349.91,328.00 348.55,328.00 C347.17,328.00 347.01,338.92 347.04,431.26 L 347.07 534.52 L 352.72 537.48 C355.82,539.11 359.52,541.36 360.93,542.49 C362.34,543.62 364.85,545.14 366.50,545.86 C373.40,548.87 399.24,562.37 403.00,564.93 C404.38,565.87 410.00,568.82 415.50,571.50 C421.00,574.18 426.89,577.41 428.59,578.68 C430.30,579.96 432.02,581.00 432.42,581.00 C433.61,581.00 436.29,584.05 435.65,584.68 C435.33,585.00 435.52,586.10 436.07,587.13 ZM 247.00 754.25 L 247.00 781.00 L 232.98 781.00 L 233.50 693.50 L 252.99 693.23 C275.04,692.92 282.37,694.09 289.64,699.10 C303.93,708.93 302.68,737.89 287.52,748.12 C281.27,752.34 277.51,753.16 261.75,753.72 ZM 337.61 780.52 C326.59,783.79 314.31,780.37 310.48,772.95 C308.17,768.50 308.50,756.51 311.02,752.97 C315.87,746.17 332.20,741.95 343.79,744.51 C353.58,746.67 353.16,732.19 343.34,728.95 C337.95,727.17 328.86,728.33 322.21,731.66 C319.08,733.22 316.26,734.62 315.93,734.78 C314.96,735.23 313.00,730.11 313.00,727.11 C313.00,723.69 315.76,721.00 319.27,721.00 C320.71,721.00 322.16,720.55 322.50,720.00 C322.84,719.45 324.64,719.00 326.50,719.00 C328.36,719.00 330.16,718.55 330.50,718.00 C331.41,716.53 343.68,716.81 349.81,718.44 C356.89,720.32 359.53,722.20 362.23,727.26 C364.28,731.10 364.52,733.13 364.83,748.95 C365.10,762.87 365.47,766.62 366.64,767.48 C367.72,768.27 368.03,770.15 367.81,774.53 L 367.50 780.50 L 361.88 780.80 C356.65,781.07 356.07,780.88 353.63,777.97 C352.18,776.25 351.00,774.17 351.00,773.35 C351.00,772.34 349.60,773.04 346.79,775.44 C344.48,777.42 340.35,779.71 337.61,780.52 ZM 500.53 778.53 C491.21,783.09 479.02,782.78 469.50,777.75 C465.57,775.68 459.75,769.52 456.96,764.50 C455.05,761.06 454.73,758.99 454.73,749.69 C454.72,742.92 455.15,738.45 455.86,737.74 C456.49,737.11 457.00,735.90 457.01,735.05 C457.02,732.64 465.72,722.29 469.19,720.55 C470.91,719.70 473.34,719.00 474.59,719.00 C475.85,719.00 477.16,718.55 477.50,718.00 C478.37,716.59 491.63,716.75 495.93,718.22 C497.89,718.89 501.78,720.86 504.57,722.59 C511.77,727.07 515.22,734.38 515.38,745.50 L 515.50 753.50 L 491.69 753.77 L 467.88 754.04 L 468.50 756.27 C472.37,770.23 484.22,774.92 497.96,767.94 C504.70,764.52 511.23,764.15 511.80,767.15 C512.28,769.73 506.42,775.65 500.53,778.53 ZM 397.05 761.25 L 397.00 781.00 L 383.00 781.00 L 383.00 750.04 C383.00,720.44 383.09,719.02 384.93,718.04 C387.59,716.61 392.54,716.73 393.75,718.25 C394.29,718.94 395.06,721.28 395.45,723.46 C396.16,727.34 396.21,727.38 397.84,725.37 C399.58,723.22 407.93,719.00 410.43,719.00 C411.23,719.00 412.16,718.55 412.50,718.00 C413.39,716.56 424.71,716.80 430.00,718.36 C435.01,719.84 438.30,723.70 440.02,730.08 C440.61,732.28 440.93,743.59 440.77,757.18 L 440.50 780.50 L 426.94 781.09 L 427.10 759.49 L 427.27 737.90 L 424.29 734.20 C419.42,728.17 411.16,727.40 403.86,732.31 C397.73,736.43 397.10,739.11 397.05,761.25 ZM 553.65 779.75 C547.83,782.40 537.09,781.98 533.46,778.96 C529.24,775.47 529.00,773.18 529.00,736.83 C529.00,716.83 529.40,701.23 529.95,700.24 C530.47,699.28 531.16,696.79 531.50,694.70 C532.11,690.91 532.11,690.91 536.30,691.38 C538.61,691.64 540.88,691.88 541.34,691.92 C541.80,691.97 542.08,708.09 541.95,727.75 C541.83,747.41 542.05,764.40 542.44,765.50 C543.78,769.21 544.30,770.76 545.34,771.29 C546.08,771.67 547.08,771.53 548.81,771.30 L 549.09 771.26 C552.46,770.81 553.58,771.07 554.65,772.54 C556.74,775.39 556.30,778.54 553.65,779.75 ZM 249.05 739.55 C250.99,741.61 251.73,741.70 262.80,741.23 C275.31,740.70 277.79,739.80 282.71,734.08 C285.86,730.41 285.91,719.90 282.81,714.09 C279.30,707.51 275.00,706.00 259.68,706.00 L 247.00 706.00 L 247.00 721.69 C247.00,736.12 247.16,737.55 249.05,739.55 ZM 471.70 744.95 C474.80,746.62 476.52,746.88 481.00,746.35 C487.13,745.63 489.13,745.64 493.50,746.44 C496.88,747.06 503.00,743.97 503.00,741.64 C503.00,740.88 501.81,738.12 500.35,735.51 C497.17,729.82 493.50,728.00 485.18,728.00 C478.46,728.00 473.76,730.47 470.91,735.50 C467.46,741.59 467.55,742.71 471.70,744.95 ZM 326.29 770.75 C327.81,772.41 329.47,773.00 332.62,773.00 C334.96,773.00 337.16,772.55 337.50,772.00 C337.84,771.45 339.07,771.00 340.23,771.00 C341.43,771.00 344.21,769.05 346.67,766.48 C350.04,762.96 351.00,761.21 351.00,758.56 C351.00,752.15 350.76,752.00 340.14,752.00 C329.02,752.00 324.13,753.74 322.56,758.26 C321.43,761.54 323.15,767.31 326.29,770.75 ZM 515.19 429.43 C515.02,440.47 514.56,449.83 514.16,450.23 C513.77,450.62 512.90,450.07 512.22,448.99 C510.69,446.53 510.59,438.00 512.10,438.00 C513.21,438.00 513.15,436.99 511.11,423.00 C509.89,414.66 508.98,411.11 507.88,410.43 C506.02,409.28 507.08,408.08 509.25,408.88 C510.49,409.34 512.40,409.63 513.50,409.54 C515.45,409.37 515.49,409.88 515.19,429.43 ZM 583.80 272.80 C583.14,273.46 582.35,273.96 582.05,273.91 C581.13,273.75 574.11,269.45 573.28,268.53 C572.85,268.06 573.09,268.02 573.82,268.44 C574.68,268.94 575.31,268.52 575.65,267.23 C576.09,265.54 576.50,265.42 578.57,266.38 C579.90,267.00 580.99,267.84 580.99,268.25 C581.00,268.66 581.90,269.00 583.00,269.00 C585.23,269.00 585.64,270.96 583.80,272.80 Z" fill="rgb(7,55,125)"/>
<path d="M 436.07 587.13 C435.52,586.10 435.33,585.00 435.65,584.68 C436.29,584.05 433.61,581.00 432.42,581.00 C432.02,581.00 430.30,579.96 428.59,578.68 C426.89,577.41 421.00,574.18 415.50,571.50 C410.00,568.82 404.38,565.87 403.00,564.93 C402.86,564.83 402.68,564.72 402.47,564.59 C405.83,566.43 417.55,572.46 431.03,579.28 C460.09,593.98 475.37,601.92 482.50,606.00 C484.70,607.26 491.20,610.74 496.95,613.74 C506.38,618.66 507.51,619.02 508.61,617.52 C509.51,616.28 509.71,609.00 509.39,588.68 C509.15,573.73 508.85,527.89 508.73,486.80 C508.58,438.60 508.15,411.76 507.50,411.14 C506.95,410.62 503.80,408.74 500.50,406.96 C495.12,404.07 490.48,401.58 486.47,399.45 C486.68,399.57 486.90,399.68 487.11,399.79 C499.95,406.54 500.70,406.80 500.45,404.53 C500.08,401.09 499.38,400.27 495.21,398.33 C493.17,397.38 491.23,396.22 490.91,395.75 C490.59,395.28 489.38,394.83 488.23,394.74 C487.08,394.66 486.36,394.23 486.63,393.79 C486.90,393.36 486.64,393.00 486.06,393.00 C485.48,393.00 484.10,392.10 483.00,391.00 C482.92,390.92 482.83,390.83 482.74,390.75 C483.48,391.11 484.24,391.48 485.00,391.84 C488.58,393.55 495.77,397.22 501.00,399.99 C509.33,404.40 510.99,404.94 514.50,404.39 C516.70,404.04 519.62,402.99 521.00,402.05 C522.38,401.11 526.65,398.87 530.50,397.05 C534.35,395.24 538.19,393.15 539.04,392.41 C540.81,390.87 564.02,379.00 565.27,379.00 C565.73,379.00 568.66,377.36 571.80,375.35 C584.05,367.49 596.41,362.17 599.57,363.39 C600.52,363.75 601.47,363.06 602.19,361.47 C602.82,360.11 603.82,359.04 604.41,359.11 C606.86,359.39 609.29,358.96 608.68,358.35 C606.87,356.54 628.25,344.85 633.65,344.70 C637.25,344.60 638.90,345.55 637.43,346.88 C636.92,347.35 625.92,353.26 613.00,360.02 C600.08,366.78 584.78,374.79 579.00,377.82 C573.22,380.86 557.47,389.08 544.00,396.10 C530.53,403.11 518.49,409.58 517.25,410.47 L 515.18 411.97 C514.96,409.54 514.46,409.46 513.50,409.54 C512.40,409.63 510.49,409.34 509.25,408.88 C507.08,408.08 506.02,409.28 507.88,410.43 C508.98,411.11 509.89,414.66 511.11,423.00 C513.15,436.99 513.21,438.00 512.10,438.00 C510.59,438.00 510.69,446.53 512.22,448.99 C512.90,450.07 513.77,450.62 514.16,450.23 C514.45,449.93 514.78,444.76 515.00,437.64 L 515.00 515.55 C515.00,608.58 515.16,619.00 516.56,619.00 C517.42,619.00 517.87,619.40 517.57,619.89 C517.27,620.37 517.69,621.33 518.51,622.01 C519.69,622.99 520.31,622.99 521.49,622.01 C522.31,621.33 522.73,620.37 522.43,619.89 C521.90,619.03 524.07,618.57 526.83,618.94 C527.56,619.04 529.29,618.39 530.67,617.48 C532.05,616.58 533.38,616.05 533.63,616.30 C534.14,616.80 528.83,619.96 519.29,624.83 C515.88,626.57 512.28,627.98 511.29,627.95 C510.31,627.93 504.33,625.08 498.00,621.63 C491.67,618.18 475.70,609.70 462.50,602.80 C449.30,595.89 431.30,586.43 422.50,581.78 C417.58,579.18 408.68,574.48 398.73,569.23 C420.88,580.87 436.45,588.97 436.79,588.98 C436.94,588.99 436.62,588.16 436.07,587.13 ZM 530.91 247.38 C528.33,246.00 525.83,244.70 523.55,243.52 C526.48,245.02 529.79,246.75 533.24,248.58 C544.20,254.39 553.81,258.90 554.59,258.60 C556.17,258.00 556.09,256.19 554.39,254.34 C552.85,252.67 534.10,243.00 532.39,243.00 C531.63,243.00 531.00,242.65 531.00,242.21 C531.00,241.78 530.06,241.35 528.92,241.27 C527.77,241.18 526.08,240.28 525.17,239.27 C523.47,237.40 521.89,235.93 520.26,234.90 C522.61,235.89 525.38,237.30 528.86,239.13 C535.26,242.50 545.67,247.96 552.00,251.26 C582.40,267.10 608.21,280.63 615.00,284.29 C629.89,292.32 633.09,294.05 638.75,297.16 C641.91,298.90 646.64,301.37 649.25,302.66 C651.86,303.95 654.00,305.40 654.00,305.89 C654.00,306.38 656.06,307.75 658.59,308.93 C662.64,310.84 663.02,311.29 661.87,312.80 C661.15,313.73 660.48,314.64 660.38,314.82 C659.98,315.50 603.40,286.03 530.91,247.38 ZM 409.34 424.19 C405.40,427.92 397.90,428.78 392.90,426.06 C388.91,423.89 386.00,420.12 386.00,417.09 C386.00,416.01 385.50,414.81 384.89,414.43 C383.01,413.27 384.55,406.19 387.16,404.02 C388.45,402.95 389.99,402.05 390.60,402.03 C391.20,402.01 392.50,401.10 393.50,400.00 C394.84,398.52 396.58,398.00 400.20,398.00 C406.61,398.00 410.52,400.13 412.99,404.98 C416.56,411.99 415.32,418.53 409.34,424.19 ZM 393.71 419.99 C397.15,422.69 404.04,422.72 406.46,420.04 C407.44,418.96 408.46,416.06 408.74,413.59 C409.19,409.58 408.92,408.77 406.20,406.05 C402.81,402.66 399.49,402.18 395.09,404.45 C389.40,407.39 388.64,416.00 393.71,419.99 ZM 482.60 397.41 C464.44,387.85 461.34,386.96 458.50,388.08 C457.40,388.52 454.44,389.14 451.92,389.47 C447.91,390.00 447.13,390.51 445.67,393.57 C443.60,397.92 443.58,399.91 445.58,404.90 C446.80,407.97 448.09,409.23 451.33,410.59 C456.87,412.90 458.19,413.09 459.74,411.80 C460.46,411.20 461.30,410.97 461.61,411.28 C462.24,411.91 458.52,414.12 457.29,413.85 C456.86,413.76 455.70,414.03 454.71,414.46 C452.77,415.31 444.82,412.71 443.19,410.70 C441.23,408.28 438.00,401.90 438.00,400.43 C438.00,396.40 442.80,390.02 446.17,389.59 C447.12,389.46 448.48,387.99 448.62,386.92 C448.69,386.41 448.81,385.58 448.88,385.07 C448.94,384.55 449.95,383.83 451.10,383.47 C452.26,383.10 452.82,382.42 452.35,381.95 C452.14,381.74 450.41,380.74 447.72,379.26 C457.35,384.30 461.60,386.41 464.00,387.41 C465.38,387.99 468.08,389.40 470.00,390.55 C471.54,391.47 476.75,394.30 482.60,397.41 ZM 342.26 533.68 L 341.82 530.00 C341.19,524.82 340.74,482.98 340.65,423.00 C340.53,344.09 340.76,323.89 341.80,321.42 C342.70,319.30 344.65,317.58 348.06,315.92 C359.00,310.59 374.86,302.66 381.00,299.46 C384.58,297.60 392.67,293.51 399.00,290.38 C405.90,286.96 411.66,284.07 416.38,281.64 C411.71,284.05 405.97,286.94 399.00,290.41 C380.98,299.38 371.73,304.31 368.33,306.75 C366.60,307.99 364.74,309.00 364.19,309.00 C363.64,309.00 360.34,310.62 356.85,312.59 C353.36,314.56 349.07,316.78 347.33,317.50 C346.47,317.86 345.74,318.06 345.11,318.43 C341.49,320.59 341.49,328.83 341.55,411.03 C341.55,416.07 341.56,421.39 341.56,427.00 C341.59,479.32 341.89,524.69 342.26,533.68 ZM 555.59 774.23 C555.37,773.67 555.06,773.10 554.65,772.54 C553.58,771.07 552.46,770.81 549.09,771.26 L 548.81 771.30 C547.08,771.53 546.08,771.67 545.34,771.29 C544.30,770.76 543.78,769.21 542.44,765.50 C542.05,764.40 541.83,747.41 541.95,727.75 C542.08,708.09 541.80,691.97 541.34,691.92 C540.88,691.88 538.61,691.64 536.30,691.38 C532.11,690.91 532.11,690.91 531.50,694.70 C531.16,696.79 530.47,699.28 529.95,700.24 C529.40,701.23 529.00,716.83 529.00,736.83 C529.00,773.18 529.24,775.47 533.46,778.96 C535.14,780.36 538.35,781.20 541.88,781.44 C539.92,781.40 538.14,781.22 536.85,780.86 C534.85,780.31 532.15,778.72 530.85,777.35 L 528.50 774.84 L 527.97 734.67 C527.67,712.58 527.78,693.49 528.19,692.25 C528.88,690.22 529.60,690.00 535.48,690.00 L 542.00 690.00 L 542.00 726.07 C542.00,750.66 542.36,762.83 543.12,764.32 C544.86,767.73 548.21,769.95 551.62,769.98 C554.32,770.00 554.84,770.43 555.38,773.12 C555.45,773.52 555.53,773.89 555.59,774.23 ZM 471.70 744.95 C470.02,744.04 469.00,743.32 468.62,742.37 C468.97,742.88 469.78,743.23 471.23,743.66 C474.93,744.75 498.07,744.69 499.84,743.60 C501.46,742.60 501.28,739.45 499.39,735.79 C496.17,729.56 494.51,728.56 486.71,728.18 C485.33,728.11 484.18,728.07 483.20,728.08 C483.84,728.03 484.50,728.00 485.18,728.00 C493.50,728.00 497.17,729.82 500.35,735.51 C501.81,738.12 503.00,740.88 503.00,741.64 C503.00,743.97 496.88,747.06 493.50,746.44 C489.13,745.64 487.13,745.63 481.00,746.35 C476.52,746.88 474.80,746.62 471.70,744.95 ZM 355.43 538.97 C354.52,538.45 353.60,537.94 352.72,537.48 L 347.07 534.52 L 347.04 435.87 C347.30,440.76 347.78,444.41 348.50,445.00 C350.32,446.51 350.45,448.68 348.75,449.25 C347.78,449.57 347.43,458.65 347.21,489.06 C346.93,526.00 347.02,528.54 348.71,529.77 C349.69,530.50 350.38,531.29 350.23,531.55 C349.20,533.32 351.54,536.60 355.43,538.97 ZM 583.80 272.80 C585.64,270.96 585.23,269.00 583.00,269.00 C581.90,269.00 581.00,268.66 580.99,268.25 C580.99,267.84 579.90,267.00 578.57,266.38 C576.50,265.42 576.09,265.54 575.65,267.23 C575.31,268.52 574.68,268.94 573.82,268.44 C573.09,268.02 572.85,268.06 573.28,268.53 C574.11,269.45 581.13,273.75 582.05,273.91 C582.35,273.96 583.14,273.46 583.80,272.80 ZM 372.50 524.66 C371.40,525.48 368.80,527.04 366.73,528.11 C363.35,529.86 362.90,529.89 362.35,528.46 C361.51,526.27 362.74,525.28 368.49,523.55 C373.93,521.92 375.56,522.37 372.50,524.66 ZM 659.92 335.25 C657.54,337.19 656.17,337.39 654.14,336.11 C652.99,335.38 652.99,335.16 654.14,334.70 C655.01,334.35 654.79,334.11 653.50,334.02 C652.13,333.93 652.61,333.50 655.00,332.65 C657.49,331.77 659.02,331.71 660.29,332.46 C661.97,333.44 661.95,333.60 659.92,335.25 ZM 469.00 398.87 C469.00,400.93 468.39,403.46 467.64,404.48 C466.38,406.20 466.24,406.09 465.75,402.92 C465.45,401.04 465.62,399.07 466.11,398.55 C466.60,398.03 467.00,396.76 467.00,395.74 C467.00,394.72 467.45,394.16 468.00,394.50 C468.55,394.84 469.00,396.81 469.00,398.87 ZM 347.04 416.51 C347.04,404.00 347.04,393.22 347.06,383.95 C347.18,397.65 347.57,399.70 348.69,400.52 C350.29,401.68 350.29,401.91 348.69,404.34 C347.88,405.59 347.32,410.50 347.04,416.51 ZM 514.00 295.43 C514.00,299.47 513.79,299.64 511.52,297.38 C509.53,295.39 509.92,292.64 512.26,292.19 C513.65,291.92 514.00,292.57 514.00,295.43 ZM 513.81 277.18 C513.49,280.41 511.71,281.96 510.53,280.04 C509.58,278.52 510.81,275.29 512.60,274.60 C513.80,274.14 514.06,274.68 513.81,277.18 ZM 654.57 337.88 C654.28,338.36 653.12,339.00 652.01,339.29 C650.87,339.58 650.25,339.40 650.58,338.86 C650.91,338.34 650.63,337.26 649.96,336.46 C648.99,335.28 649.08,335.00 650.44,335.00 C651.36,335.00 651.84,335.45 651.50,336.00 C651.16,336.55 651.84,337.00 653.00,337.00 C654.16,337.00 654.87,337.40 654.57,337.88 ZM 514.00 242.43 C514.00,243.45 513.10,244.00 511.42,244.00 C508.28,244.00 508.63,241.65 511.83,241.18 C513.27,240.97 514.00,241.39 514.00,242.43 ZM 514.00 304.03 C514.00,305.11 513.33,306.00 512.50,306.00 C511.67,306.00 511.00,305.37 511.00,304.61 C511.00,303.84 511.67,302.95 512.50,302.64 C513.52,302.25 514.00,302.69 514.00,304.03 ZM 513.00 268.00 C513.00,268.55 512.55,269.00 512.00,269.00 C511.45,269.00 511.00,268.55 511.00,268.00 C511.00,267.45 511.45,267.00 512.00,267.00 C512.55,267.00 513.00,267.45 513.00,268.00 ZM 513.48 233.09 C510.53,233.21 507.02,234.28 502.43,236.36 C507.11,234.05 510.18,232.92 513.48,233.09 ZM 479.10 389.00 C479.09,389.00 479.07,389.00 479.06,389.00 C477.99,389.00 476.84,388.55 476.50,388.00 C476.40,387.83 476.23,387.68 476.01,387.54 C476.28,387.64 476.53,387.75 476.76,387.86 C477.15,388.05 478.00,388.47 479.10,389.00 ZM 476.10 730.14 L 476.05 730.17 C473.81,731.69 471.79,733.96 470.33,736.53 C470.51,736.21 470.70,735.86 470.91,735.50 C472.24,733.16 473.96,731.38 476.10,730.14 ZM 401.38 563.93 C397.02,561.38 386.62,555.86 378.02,551.49 C387.75,556.42 399.52,562.64 401.38,563.93 ZM 553.65 779.75 C554.96,779.15 555.73,778.08 555.92,776.81 C555.95,778.46 555.31,779.00 553.65,779.75 ZM 409.28 359.01 C402.49,355.45 395.24,351.65 388.36,348.05 C394.66,351.33 401.65,354.99 409.28,359.01 ZM 469.87 737.40 C469.34,738.43 468.91,739.51 468.59,740.60 C468.54,740.76 468.50,740.91 468.47,741.05 C468.57,740.13 469.05,738.97 469.87,737.40 ZM 361.31 542.79 C361.18,542.69 361.05,542.59 360.93,542.49 C360.03,541.77 358.20,540.59 356.19,539.41 C358.51,540.72 360.63,542.13 361.31,542.79 ZM 343.00 539.25 C342.95,539.21 342.92,539.18 342.92,539.16 L 342.70 537.35 ZM 370.08 547.52 C368.62,546.82 367.40,546.25 366.50,545.86 C366.27,545.76 366.02,545.64 365.77,545.51 L 365.79 545.53 C366.74,545.93 368.23,546.63 370.08,547.52 Z" fill="rgb(52,119,162)"/>
<path d="M 617.96 779.42 C613.77,780.66 607.96,780.98 590.57,780.92 C578.43,780.88 567.94,780.62 567.25,780.34 C565.47,779.62 565.43,694.97 567.20,693.20 C568.06,692.34 574.47,692.00 589.73,692.00 C608.71,692.00 611.75,692.23 617.26,694.09 C627.45,697.52 632.00,703.98 632.00,715.01 C632.00,722.09 629.56,727.75 625.31,730.53 C619.51,734.33 619.53,734.57 625.96,738.68 C633.69,743.63 636.49,749.29 635.75,758.49 C634.85,769.73 629.54,775.98 617.96,779.42 ZM 545.00 611.41 C539.00,614.57 533.27,617.53 528.30,620.04 C532.04,617.93 533.94,616.61 533.63,616.30 C533.38,616.05 532.05,616.58 530.67,617.48 C529.29,618.39 527.56,619.04 526.83,618.94 C524.07,618.57 521.90,619.03 522.43,619.89 C522.73,620.37 522.31,621.33 521.49,622.01 C520.31,622.99 519.69,622.99 518.51,622.01 C517.69,621.33 517.27,620.37 517.57,619.89 C517.87,619.40 517.42,619.00 516.56,619.00 C516.43,619.00 516.31,618.91 516.20,618.68 L 518.75 618.27 C520.81,617.94 526.78,615.14 532.00,612.05 C537.22,608.96 543.73,605.33 546.46,603.97 C549.19,602.61 552.31,600.71 553.40,599.75 C554.49,598.79 555.79,598.00 556.29,598.00 C557.87,598.00 578.46,587.22 582.88,584.09 C584.32,583.07 587.75,581.23 590.50,580.00 C595.21,577.89 605.13,572.96 623.50,563.59 C627.90,561.35 631.65,559.17 631.83,558.75 C632.02,558.34 632.56,558.00 633.04,558.00 C633.52,558.00 636.29,556.58 639.21,554.86 C642.12,553.13 649.22,549.33 655.00,546.42 C665.60,541.07 673.45,536.00 671.12,536.00 C669.18,536.00 670.23,531.85 672.50,530.60 C673.60,530.00 674.83,529.05 675.23,528.50 C675.64,527.95 675.98,485.56 675.98,434.30 L 676.00 341.09 L 671.29 339.01 C668.69,337.86 665.79,336.22 664.83,335.35 C663.26,333.92 662.72,333.83 631.85,350.02 C635.14,348.24 637.22,347.08 637.43,346.88 C638.90,345.55 637.25,344.60 633.65,344.70 C628.25,344.85 606.87,356.54 608.68,358.35 C609.29,358.96 606.86,359.39 604.41,359.11 C603.82,359.04 602.82,360.11 602.19,361.47 C601.47,363.06 600.52,363.75 599.57,363.39 C596.78,362.32 586.81,366.34 576.08,372.71 C580.90,369.80 585.49,367.47 591.00,365.09 C593.57,363.99 597.11,361.90 598.00,360.98 C598.28,360.69 601.65,358.95 605.50,357.10 C617.63,351.28 622.45,348.75 624.08,347.35 C624.95,346.60 632.83,342.37 641.58,337.95 C661.45,327.90 663.98,325.27 660.48,318.26 C658.88,315.05 658.80,314.52 649.32,309.57 C656.35,313.12 660.28,315.00 660.38,314.82 C660.48,314.64 661.15,313.73 661.87,312.80 C663.02,311.29 662.64,310.84 658.59,308.93 C656.06,307.75 654.00,306.38 654.00,305.89 C654.00,305.40 651.86,303.95 649.25,302.66 C646.64,301.37 641.91,298.90 638.75,297.16 C641.91,298.90 646.75,301.42 649.50,302.76 C652.25,304.10 655.17,305.78 656.00,306.48 C656.83,307.18 659.08,308.30 661.00,308.97 C664.21,310.09 664.99,309.93 670.35,307.10 C676.20,304.00 681.34,303.12 682.50,305.00 C682.84,305.55 684.00,306.00 685.07,306.00 C686.14,306.00 688.42,307.24 690.14,308.75 C699.26,316.77 697.54,331.96 686.84,337.97 L 683.00 340.13 L 683.00 438.99 C683.00,527.28 682.83,538.02 681.44,539.42 C680.58,540.28 676.87,542.49 673.19,544.34 C664.88,548.52 623.63,570.08 615.50,574.49 C612.20,576.28 602.08,581.58 593.00,586.28 C583.92,590.98 562.33,602.28 545.00,611.41 ZM 691.79 778.61 C687.97,780.54 684.69,781.31 679.07,781.61 C668.14,782.17 660.36,779.29 654.00,772.33 C649.41,767.31 648.00,764.66 648.00,761.07 C648.00,759.45 647.55,757.84 647.00,757.50 C646.45,757.16 646.00,752.92 646.00,748.08 C646.00,740.14 646.31,738.67 649.20,733.08 C653.08,725.56 656.63,721.70 661.68,719.49 C663.78,718.58 666.28,717.42 667.24,716.92 C668.19,716.41 673.08,716.00 678.09,716.00 C685.88,716.00 687.96,716.37 692.35,718.57 C704.93,724.86 710.73,735.89 709.81,751.78 C709.08,764.36 703.49,772.68 691.79,778.61 ZM 737.37 769.99 L 730.53 781.00 L 723.26 781.00 C718.79,781.00 716.00,780.59 716.00,779.93 C716.00,778.77 717.75,775.25 719.16,773.56 C719.65,772.98 721.36,770.47 722.97,768.00 C724.57,765.53 728.15,761.03 730.92,758.00 C737.02,751.35 737.54,747.85 733.16,742.78 C731.59,740.98 728.70,737.03 726.72,734.00 C724.75,730.97 721.75,726.52 720.07,724.10 C718.38,721.68 717.00,719.32 717.00,718.85 C717.00,718.38 720.34,718.00 724.42,718.00 C724.74,718.00 725.05,718.00 725.34,718.00 C728.10,717.99 729.79,717.99 731.22,718.59 C733.67,719.62 735.37,722.43 740.30,730.00 C743.70,735.21 744.99,736.45 746.84,736.25 C749.87,735.92 751.06,734.59 754.17,728.00 C758.68,718.47 761.93,716.00 769.93,716.00 C774.22,716.00 775.00,716.29 775.00,717.87 C775.00,718.90 770.72,725.87 765.50,733.37 C760.28,740.87 756.01,747.56 756.02,748.25 C756.04,748.94 757.61,751.53 759.51,754.00 C761.41,756.47 764.62,760.97 766.63,764.00 C768.65,767.03 771.80,771.48 773.65,773.89 C778.62,780.41 778.28,781.00 769.57,781.00 C764.18,781.00 761.72,780.57 760.59,779.44 C758.83,777.68 752.00,766.30 752.00,765.13 C752.00,763.61 746.12,757.81 745.17,758.39 C744.64,758.72 741.13,763.94 737.37,769.99 ZM 477.12 564.94 C473.27,566.90 468.24,567.47 465.00,566.30 C464.17,566.00 461.82,564.15 459.77,562.19 C455.34,557.96 453.37,553.04 454.94,550.11 C457.49,545.36 456.33,542.78 447.91,534.48 C437.08,523.79 429.12,513.99 421.74,502.25 C418.37,496.89 415.24,492.05 414.79,491.50 C414.33,490.95 410.65,486.00 406.61,480.50 C393.08,462.09 380.33,452.91 365.00,450.55 C357.54,449.40 356.73,449.03 358.07,447.42 C360.50,444.49 368.71,445.93 381.32,451.48 C392.91,456.58 402.95,467.00 417.96,489.50 C431.53,509.83 439.13,519.72 449.64,530.71 L 457.50 538.92 L 462.00 538.33 C464.48,538.01 466.93,537.35 467.45,536.87 C468.78,535.65 473.71,535.79 476.32,537.12 C481.20,539.62 484.92,544.26 485.58,548.66 C486.04,551.73 486.71,553.01 487.86,553.03 C488.76,553.05 490.35,553.71 491.40,554.50 C492.44,555.29 493.70,555.68 494.20,555.37 C495.56,554.53 500.00,555.87 500.00,557.12 C500.00,557.87 497.56,558.00 492.25,557.54 L 484.50 556.88 L 482.83 559.88 C481.92,561.53 479.35,563.80 477.12,564.94 ZM 670.50 767.81 C675.25,770.30 679.48,770.53 684.23,768.55 C688.34,766.83 694.00,760.73 694.00,758.02 C694.00,756.98 694.45,755.84 695.00,755.50 C696.59,754.52 696.15,745.95 694.23,740.60 C691.68,733.47 686.71,729.75 678.98,729.19 C672.11,728.70 668.25,729.97 664.76,733.89 C661.45,737.60 660.00,742.22 660.00,749.03 C660.00,758.29 663.16,763.95 670.50,767.81 ZM 469.90 369.01 C466.04,374.95 464.51,375.41 465.47,370.32 C466.14,366.75 474.86,355.88 484.00,347.23 C489.04,342.45 498.59,336.01 500.70,335.95 C501.69,335.93 504.08,335.13 506.00,334.19 C509.39,332.52 509.50,332.28 509.50,326.78 C509.50,321.11 510.86,318.18 512.91,319.45 C513.51,319.82 514.00,322.51 514.00,325.43 C514.00,330.59 514.10,330.77 517.12,331.38 C518.84,331.72 524.77,332.00 530.30,332.00 C535.83,332.00 541.74,332.42 543.43,332.93 L 544.07 333.13 C551.17,335.28 553.42,335.97 555.36,335.47 C556.32,335.23 557.20,334.71 558.55,333.94 C561.49,332.27 564.22,331.66 569.18,331.59 C575.27,331.51 576.13,331.76 578.94,334.44 C587.40,342.54 583.72,356.61 572.24,360.05 C563.98,362.52 554.00,356.76 554.00,349.52 C554.00,341.81 553.18,340.42 547.66,338.72 C515.92,328.94 489.09,339.39 469.90,369.01 ZM 535.59 550.49 C530.93,552.42 526.34,554.00 525.40,554.00 C523.82,554.00 523.83,553.85 525.50,552.00 C526.50,550.90 528.07,550.00 529.00,550.00 C530.87,550.00 536.65,547.39 539.00,545.49 C539.83,544.83 543.20,542.83 546.50,541.05 C549.80,539.28 553.40,537.01 554.50,536.01 C555.60,535.00 559.37,532.51 562.89,530.47 C566.40,528.42 571.35,524.67 573.90,522.12 C584.36,511.68 594.72,500.28 596.52,497.24 C597.57,495.46 598.78,494.00 599.22,494.00 C599.65,494.00 600.01,493.44 600.02,492.75 C600.04,491.48 602.89,487.62 608.75,480.96 C612.81,476.33 613.72,472.28 611.60,468.19 C609.61,464.34 609.53,455.82 611.45,452.10 C613.82,447.52 617.13,446.00 624.77,446.00 C631.27,446.00 631.77,446.17 635.01,449.51 C638.01,452.61 638.45,453.76 638.81,459.43 C639.22,465.75 639.17,465.90 635.22,470.13 C631.39,474.24 630.92,474.44 624.36,474.86 L 617.50 475.31 L 607.50 488.76 C585.09,518.93 560.16,540.32 535.59,550.49 ZM 583.25 767.34 C583.94,767.62 589.45,767.86 595.50,767.88 C612.97,767.93 619.63,765.26 620.12,758.00 C620.54,751.84 620.05,749.56 617.75,746.98 C613.93,742.69 610.89,742.00 595.95,742.00 L 582.00 742.00 L 582.00 754.42 C582.00,763.41 582.34,766.97 583.25,767.34 ZM 586.35 444.14 C576.97,455.83 573.99,458.50 574.01,455.22 C574.02,452.79 576.62,449.13 584.58,440.33 C588.38,436.12 592.58,431.06 593.89,429.09 C595.21,427.11 597.06,424.60 598.01,423.50 C600.57,420.54 601.27,416.47 599.49,414.99 C598.67,414.31 598.00,412.94 598.00,411.94 C598.00,410.94 597.55,409.84 597.00,409.50 C596.45,409.16 596.00,407.59 596.00,406.00 C596.00,404.41 596.45,402.84 597.00,402.50 C597.55,402.16 598.00,401.14 598.00,400.24 C598.00,399.34 600.05,396.66 602.55,394.30 C606.35,390.71 607.76,390.00 611.09,390.00 C617.42,390.00 622.82,393.33 625.20,398.71 C628.59,406.38 626.46,413.88 619.70,418.08 C617.29,419.57 615.02,420.01 610.53,419.85 L 604.56 419.63 L 600.13 426.07 C597.69,429.61 591.49,437.74 586.35,444.14 ZM 585.00 730.71 C586.38,731.41 588.17,731.70 589.00,731.36 C589.83,731.02 595.45,730.60 601.50,730.42 C615.10,730.02 616.00,729.32 616.00,719.06 C616.00,713.37 615.66,712.04 613.75,710.30 C609.57,706.50 607.36,706.00 594.53,706.00 L 581.94 706.00 L 582.22 717.72 C582.49,729.09 582.57,729.48 585.00,730.71 ZM 531.28 494.36 C528.41,495.81 525.49,496.99 524.78,496.98 C522.84,496.96 529.97,491.04 533.93,489.39 C535.83,488.59 538.91,486.78 540.76,485.37 C543.93,482.95 544.12,482.46 543.98,477.15 C543.70,466.37 543.89,465.41 546.99,462.17 C550.62,458.37 553.31,457.61 560.21,458.43 C563.12,458.78 566.89,459.16 568.59,459.28 C572.05,459.53 572.00,459.34 572.31,471.67 C572.48,478.08 572.23,479.13 570.00,481.52 C564.85,487.02 557.06,488.64 550.94,485.47 C548.07,483.98 547.81,484.05 542.24,487.83 C539.08,489.97 534.15,492.91 531.28,494.36 ZM 502.97 504.04 C501.11,505.21 486.09,505.08 479.57,503.83 C473.72,502.72 461.89,497.41 455.83,493.18 C450.94,489.78 436.93,475.80 431.58,469.00 C426.75,462.86 416.59,448.09 412.97,441.95 C409.85,436.66 409.14,433.00 411.25,433.01 C412.54,433.01 413.43,434.24 421.43,447.00 C430.39,461.30 441.08,475.09 448.14,481.44 C457.18,489.57 464.23,493.94 476.29,498.86 C477.83,499.48 483.68,500.29 489.29,500.64 C500.70,501.37 505.36,502.52 502.97,504.04 ZM 669.10 330.47 C671.87,333.62 672.74,334.00 677.17,334.00 C685.90,334.00 689.94,330.41 689.98,322.63 C690.00,318.30 689.57,317.34 686.12,313.88 C683.06,310.82 681.48,310.00 678.66,310.00 C673.80,310.00 670.88,311.50 668.23,315.37 C664.87,320.27 665.20,326.02 669.10,330.47 ZM 562.85 353.03 C566.74,356.23 569.74,356.73 573.24,354.75 C576.82,352.73 577.93,350.76 577.97,346.36 C578.05,335.62 563.54,331.67 559.51,341.33 C557.62,345.85 558.69,349.60 562.85,353.03 ZM 465.43 560.09 C468.72,561.50 474.97,560.38 477.60,557.91 C484.77,551.17 475.02,537.83 466.24,542.38 C462.34,544.39 461.01,546.18 460.34,550.28 C459.71,554.19 462.00,558.61 465.43,560.09 ZM 619.38 468.09 C623.92,470.86 627.33,470.51 630.92,466.92 C635.42,462.42 635.25,457.31 630.47,453.10 C626.12,449.28 622.23,449.09 618.20,452.49 C612.94,456.91 613.52,464.52 619.38,468.09 ZM 553.36 480.08 C556.95,482.27 559.21,482.47 562.32,480.88 C567.68,478.14 569.24,473.30 566.48,467.97 C561.77,458.86 548.73,461.70 548.73,471.83 C548.73,476.57 549.31,477.61 553.36,480.08 ZM 604.07 411.10 C605.86,413.61 606.78,414.00 610.96,414.00 C617.14,414.00 619.95,411.82 620.67,406.44 C621.12,403.06 620.77,401.88 618.52,399.20 C616.23,396.48 615.15,396.00 611.37,396.00 C603.01,396.00 599.09,404.11 604.07,411.10 ZM 448.17 407.27 C450.06,408.85 452.11,409.78 452.98,409.45 C453.82,409.12 455.75,408.61 457.27,408.30 C463.36,407.07 466.25,397.39 461.75,393.30 C458.68,390.50 456.15,389.26 453.33,389.27 C455.46,388.92 457.60,388.44 458.50,388.08 C460.17,387.43 461.93,387.46 466.77,389.53 C466.44,389.69 466.73,390.50 467.58,392.53 C467.95,393.41 468.23,394.30 468.45,395.17 C468.31,394.84 468.16,394.60 468.00,394.50 C467.45,394.16 467.00,394.72 467.00,395.74 C467.00,396.76 466.60,398.03 466.11,398.55 C465.62,399.07 465.45,401.04 465.75,402.92 C466.24,406.09 466.38,406.20 467.64,404.48 C468.05,403.92 468.42,402.90 468.67,401.76 C467.41,408.88 461.37,414.40 454.34,414.57 C454.48,414.55 454.60,414.51 454.71,414.46 C455.70,414.03 456.86,413.76 457.29,413.85 C458.52,414.12 462.24,411.91 461.61,411.28 C461.30,410.97 460.46,411.20 459.74,411.80 C458.19,413.09 456.87,412.90 451.33,410.59 C448.09,409.23 446.80,407.97 445.58,404.90 C444.10,401.21 443.72,399.16 444.46,396.59 C443.71,400.24 444.83,404.47 448.17,407.27 ZM 388.71 402.89 C388.20,403.21 387.66,403.60 387.16,404.02 C385.33,405.54 384.02,409.48 384.06,412.10 C384.02,411.79 384.00,411.48 384.00,411.16 C384.00,407.61 380.82,406.40 367.28,404.79 C357.43,403.62 354.98,402.75 358.75,401.78 C360.49,401.34 373.63,402.36 381.77,403.58 C384.03,403.91 386.50,403.63 388.71,402.89 ZM 508.50 447.01 C508.60,457.94 508.68,471.26 508.73,486.80 C508.76,497.35 508.80,508.20 508.85,518.77 C508.57,508.00 507.82,504.00 506.42,504.00 C504.62,504.00 504.62,503.08 506.41,501.08 C507.56,499.80 507.93,491.82 508.37,458.50 C508.43,454.56 508.47,450.71 508.50,447.01 ZM 638.44 516.09 C637.54,517.56 634.74,517.14 631.25,515.01 C627.36,512.64 626.94,510.00 630.45,510.00 C635.39,510.00 640.03,513.53 638.44,516.09 ZM 392.42 514.73 C387.89,517.32 385.00,517.63 385.00,515.54 C385.00,512.80 389.18,510.00 393.27,510.00 C398.14,510.00 397.84,511.65 392.42,514.73 ZM 513.81 277.18 C514.06,274.68 513.80,274.14 512.60,274.60 C511.05,275.20 509.92,277.71 510.26,279.37 C509.36,277.84 508.94,275.26 509.27,272.27 C510.34,262.81 514.48,264.40 514.49,274.27 C514.50,279.27 514.18,280.52 512.82,280.79 C512.56,280.84 512.32,280.84 512.08,280.80 C512.89,280.48 513.62,279.14 513.81,277.18 ZM 514.00 295.43 C514.00,292.57 513.65,291.92 512.26,292.19 C511.57,292.32 511.05,292.65 510.71,293.10 C510.93,292.71 511.20,292.48 511.54,292.35 C512.39,292.02 513.29,291.96 513.54,292.21 C514.46,293.13 515.23,301.94 514.61,304.43 C513.99,306.87 512.11,307.78 510.67,306.33 C510.30,305.97 510.00,302.80 510.00,299.30 C510.00,297.24 510.07,295.75 510.24,294.69 C510.27,295.57 510.68,296.54 511.52,297.38 C513.79,299.64 514.00,299.47 514.00,295.43 ZM 656.50 525.00 C654.93,527.55 647.00,524.18 647.00,520.97 C647.00,519.57 647.68,519.00 649.35,519.00 C652.05,519.00 657.42,523.51 656.50,525.00 ZM 514.00 353.50 C514.00,358.33 513.76,359.00 512.00,359.00 C510.24,359.00 510.00,358.33 510.00,353.50 C510.00,348.67 510.24,348.00 512.00,348.00 C513.76,348.00 514.00,348.67 514.00,353.50 ZM 513.39 253.42 C512.43,255.92 510.00,255.30 510.00,252.56 C510.00,251.22 510.45,249.84 511.00,249.50 C512.57,248.53 512.17,245.19 510.36,244.18 C510.02,243.99 509.76,243.77 509.59,243.54 C509.94,243.82 510.54,244.00 511.42,244.00 C512.74,244.00 513.59,243.66 513.88,243.01 C513.97,243.81 514.00,244.91 514.00,246.42 C514.00,249.40 513.73,252.55 513.39,253.42 ZM 659.92 335.25 C661.95,333.60 661.97,333.44 660.29,332.46 C659.02,331.71 657.49,331.77 655.00,332.65 C652.61,333.50 652.13,333.93 653.50,334.02 C654.79,334.11 655.01,334.35 654.14,334.70 C652.99,335.16 652.99,335.38 654.14,336.11 C656.17,337.39 657.54,337.19 659.92,335.25 ZM 618.00 505.93 C618.00,507.28 615.20,507.20 612.22,505.77 C609.50,504.45 609.81,502.62 612.83,502.18 C615.05,501.85 618.00,504.00 618.00,505.93 ZM 515.00 514.74 L 515.00 454.05 C515.00,490.67 515.19,496.00 516.50,496.00 C517.34,496.00 518.00,496.89 518.00,498.03 C518.00,499.15 517.33,500.32 516.50,500.64 C515.75,500.93 515.25,506.93 515.00,514.74 ZM 515.04 570.18 C515.02,561.53 515.01,551.38 515.01,539.48 C515.25,546.69 515.73,552.00 516.44,552.00 C519.00,552.00 519.39,554.26 517.16,556.07 C515.59,557.34 515.16,557.94 515.04,570.18 ZM 409.34 424.19 C409.60,423.94 409.86,423.69 410.10,423.43 C409.47,424.26 409.00,425.53 409.00,426.56 C409.00,429.35 407.92,430.19 405.95,428.95 C405.15,428.44 402.79,428.02 400.71,428.02 C399.17,428.01 397.60,427.73 396.08,427.25 C400.70,428.33 406.17,427.19 409.34,424.19 ZM 451.00 383.50 C452.22,383.11 452.82,382.42 452.35,381.95 C452.82,382.42 452.26,383.10 451.10,383.47 C449.95,383.83 448.94,384.55 448.88,385.07 C448.81,385.58 448.69,386.41 448.62,386.92 C448.48,387.99 447.12,389.46 446.17,389.59 C444.11,389.85 441.53,392.32 439.82,395.13 C442.52,390.24 447.62,384.57 451.00,383.50 ZM 654.57 337.88 C654.87,337.40 654.16,337.00 653.00,337.00 C651.84,337.00 651.16,336.55 651.50,336.00 C651.84,335.45 651.36,335.00 650.44,335.00 C649.08,335.00 648.99,335.28 649.96,336.46 C650.63,337.26 650.91,338.34 650.58,338.86 C650.25,339.40 650.87,339.58 652.01,339.29 C653.12,339.00 654.28,338.36 654.57,337.88 ZM 449.14 372.97 C454.66,375.58 458.46,377.00 460.01,377.00 C461.09,377.00 464.24,379.25 467.00,382.00 C468.31,383.30 469.66,384.50 470.81,385.39 C470.08,384.89 469.33,384.30 468.62,383.67 C466.56,381.84 461.19,378.63 456.69,376.53 C453.80,375.19 451.35,374.03 449.14,372.97 ZM 514.00 304.03 C514.00,302.69 513.52,302.25 512.50,302.64 C511.67,302.95 511.00,303.84 511.00,304.61 C511.00,305.37 511.67,306.00 512.50,306.00 C513.33,306.00 514.00,305.11 514.00,304.03 ZM 355.26 538.86 C351.47,536.50 349.22,533.29 350.23,531.55 C350.27,531.49 350.25,531.39 350.20,531.28 C351.24,532.43 352.00,533.86 352.00,534.78 C352.00,535.85 353.02,537.17 355.26,538.86 ZM 508.97 540.14 C509.10,561.90 509.25,580.23 509.39,588.68 C509.63,604.25 509.58,612.17 509.13,615.58 C509.57,612.18 509.61,604.30 509.33,588.68 C509.07,574.18 508.91,552.71 508.97,540.14 ZM 513.00 268.00 C513.00,267.45 512.55,267.00 512.00,267.00 C511.45,267.00 511.00,267.45 511.00,268.00 C511.00,268.55 511.45,269.00 512.00,269.00 C512.55,269.00 513.00,268.55 513.00,268.00 ZM 361.31 542.79 C361.28,542.75 361.24,542.71 361.19,542.68 C364.36,544.50 368.43,546.64 373.50,549.16 C375.86,550.34 379.06,551.98 382.45,553.75 C380.96,552.98 379.47,552.22 378.02,551.49 C375.05,549.97 372.29,548.60 370.08,547.52 C368.23,546.63 366.74,545.93 365.79,545.53 L 365.77 545.51 C364.33,544.80 362.54,543.71 361.31,542.79 ZM 485.47 398.93 C485.80,399.10 486.14,399.28 486.47,399.45 C490.48,401.58 495.12,404.07 500.50,406.96 C503.80,408.74 506.95,410.62 507.50,411.14 C507.58,411.22 507.66,411.70 507.73,412.57 C506.99,410.82 505.56,409.71 501.98,407.79 C495.76,404.43 490.20,401.45 485.47,398.93 ZM 445.92 393.06 C447.02,390.86 447.85,390.17 450.34,389.71 C448.44,390.31 446.95,391.52 445.92,393.06 ZM 530.91 247.38 C567.07,266.66 599.27,283.65 622.51,295.76 C600.14,284.14 570.57,268.52 530.91,247.38 ZM 440.67 406.75 C439.08,404.50 438.00,402.13 438.00,400.43 C438.00,401.35 439.25,404.17 440.67,406.75 ZM 513.08 241.19 C512.75,241.11 512.33,241.11 511.83,241.18 C510.47,241.38 509.63,241.92 509.35,242.47 C509.54,241.68 510.55,241.00 512.06,241.00 C512.48,241.00 512.82,241.05 513.08,241.19 ZM 410.55 422.96 C412.48,420.85 413.78,418.64 414.45,416.33 C413.71,419.00 412.28,421.52 410.57,422.95 ZM 410.39 401.37 C408.88,399.92 407.03,398.96 404.75,398.45 C406.00,398.70 407.14,399.06 408.04,399.52 C408.85,399.94 409.64,400.58 410.39,401.37 ZM 392.94 400.57 C392.16,401.30 391.32,401.87 390.79,402.00 C391.58,401.59 392.31,401.11 392.94,400.57 ZM 386.00 417.09 C386.00,418.52 386.65,420.12 387.76,421.64 C386.65,420.18 386.00,418.62 386.00,417.09 ZM 395.31 398.69 C394.80,398.91 394.37,399.19 393.97,399.53 L 393.98 399.52 C394.26,399.19 394.72,398.91 395.31,398.69 ZM 414.88 414.22 C415.03,413.00 415.01,411.76 414.83,410.49 C414.94,411.18 415.00,411.86 415.00,412.51 C415.00,413.07 414.96,413.65 414.88,414.22 ZM 441.16 368.99 C439.35,368.06 437.52,367.09 435.50,365.99 C437.48,367.06 439.37,368.07 441.16,368.99 ZM 511.78 627.90 C511.65,627.93 511.56,627.95 511.50,627.95 C511.48,627.95 511.46,627.95 511.44,627.95 C511.53,627.94 511.65,627.92 511.78,627.90 Z" fill="rgb(29,196,188)"/>
</g>
</svg>
